<?xml version="1.0" encoding="UTF-8" standalone="no"?>
<!-- Created with Inkscape (http://www.inkscape.org/) -->

<svg
   width="12.157775mm"
   height="19.488794mm"
   viewBox="0 0 12.157775 19.488794"
   version="1.1"
   id="svg1"
   xml:space="preserve"
   inkscape:version="1.3.2 (091e20e, 2023-11-25, custom)"
   sodipodi:docname="attention_block.svg"
   xmlns:inkscape="http://www.inkscape.org/namespaces/inkscape"
   xmlns:sodipodi="http://sodipodi.sourceforge.net/DTD/sodipodi-0.dtd"
   xmlns="http://www.w3.org/2000/svg"
   xmlns:svg="http://www.w3.org/2000/svg"><sodipodi:namedview
     id="namedview1"
     pagecolor="#ffffff"
     bordercolor="#666666"
     borderopacity="1.0"
     inkscape:showpageshadow="2"
     inkscape:pageopacity="0.0"
     inkscape:pagecheckerboard="0"
     inkscape:deskcolor="#d1d1d1"
     inkscape:document-units="mm"
     inkscape:zoom="11.431425"
     inkscape:cx="18.151717"
     inkscape:cy="35.253696"
     inkscape:window-width="1920"
     inkscape:window-height="991"
     inkscape:window-x="-9"
     inkscape:window-y="-9"
     inkscape:window-maximized="1"
     inkscape:current-layer="g1"><inkscape:page
       x="0"
       y="0"
       width="12.157775"
       height="19.488794"
       id="page1"
       margin="0"
       bleed="0" /><inkscape:page
       x="3.9648985e-05"
       y="0.00064452714"
       width="12.157696"
       height="19.487797"
       id="page2"
       margin="0"
       bleed="0" /></sodipodi:namedview><defs
     id="defs1" /><g
     inkscape:label="Calque 1"
     inkscape:groupmode="layer"
     id="layer1"
     transform="translate(-219.99996,6.4452712e-4)" /><g
     id="g1"
     inkscape:groupmode="layer"
     inkscape:label="1"
     transform="matrix(0.26458333,0,0,0.26458334,5.0714326e-5,6.4452712e-4)"><path
       id="path1"
       d="m 14.902,24.629 c 0.09,0 0.145,0 0.145,-0.074 0,-0.075 -0.067,-0.075 -0.102,-0.075 h -0.254 c -0.039,0 -0.105,0 -0.105,0.075 0,0.074 0.055,0.074 0.141,0.074 l -0.192,0.766 c -0.031,0.128 -0.078,0.324 -0.097,0.425 -0.016,-0.086 -0.024,-0.129 -0.047,-0.218 l -0.243,-0.973 c 0.086,0 0.141,0 0.141,-0.074 0,-0.075 -0.066,-0.075 -0.101,-0.075 h -0.254 c -0.039,0 -0.106,0 -0.106,0.075 0,0.074 0.055,0.074 0.145,0.074 l 0.328,1.301 c 0.023,0.093 0.066,0.093 0.137,0.093 0.066,0 0.117,0 0.136,-0.093 z"
       style="fill:#000000;fill-opacity:1;fill-rule:nonzero;stroke:none"
       transform="scale(1.3333333)" /><path
       id="path2"
       d="m 14.781,32.043 0.379,-0.481 c 0.09,0 0.141,0 0.141,-0.078 0,-0.074 -0.067,-0.074 -0.102,-0.074 H 14.98 c -0.035,0 -0.101,0 -0.101,0.078 0,0.074 0.066,0.074 0.101,0.074 l -0.523,0.668 v -0.668 h 0.055 c 0.035,0 0.101,0 0.101,-0.074 0,-0.078 -0.062,-0.078 -0.101,-0.078 h -0.25 c -0.039,0 -0.102,0 -0.102,0.074 0,0.078 0.063,0.078 0.102,0.078 h 0.054 v 1.219 h -0.054 c -0.039,0 -0.102,0 -0.102,0.074 0,0.083 0.063,0.083 0.102,0.083 h 0.25 c 0.035,0 0.101,0 0.101,-0.079 0,-0.078 -0.062,-0.078 -0.101,-0.078 h -0.055 v -0.332 l 0.231,-0.289 0.347,0.621 c -0.035,0 -0.097,0 -0.097,0.074 0,0.083 0.062,0.083 0.101,0.083 h 0.188 c 0.035,0 0.101,0 0.101,-0.079 0,-0.078 -0.058,-0.078 -0.129,-0.078 -0.008,-0.008 -0.015,-0.019 -0.019,-0.031 z"
       style="fill:#000000;fill-opacity:1;fill-rule:nonzero;stroke:none"
       transform="scale(1.3333333)" /><path
       id="path3"
       d="m 14.941,18.887 c 0.036,0 0.079,0 0.079,-0.051 0,-0.02 -0.047,-0.106 -0.075,-0.156 -0.023,-0.035 -0.066,-0.118 -0.086,-0.157 0.114,-0.043 0.157,-0.125 0.18,-0.332 0.016,-0.129 0.016,-0.3 0.016,-0.418 0,-0.718 -0.055,-0.793 -0.516,-0.793 -0.461,0 -0.512,0.071 -0.512,0.793 0,0.723 0.051,0.789 0.512,0.789 0.031,0 0.113,0 0.141,0 0.015,0.036 0.148,0.278 0.152,0.293 0.02,0.028 0.047,0.028 0.086,0.028 z M 14.598,18.41 H 14.52 c -0.223,0 -0.274,-0.066 -0.301,-0.203 -0.02,-0.133 -0.02,-0.301 -0.02,-0.434 0,-0.136 0,-0.332 0.024,-0.453 0.031,-0.132 0.086,-0.183 0.316,-0.183 0.223,0 0.293,0.043 0.32,0.199 0.024,0.133 0.024,0.301 0.024,0.437 0,0.52 -0.051,0.555 -0.106,0.594 l -0.121,-0.219 c -0.023,-0.035 -0.023,-0.043 -0.074,-0.043 h -0.031 c -0.035,0 -0.078,0 -0.078,0.047 0,0.012 0,0.028 0.011,0.036 z"
       style="fill:#000000;fill-opacity:1;fill-rule:nonzero;stroke:none"
       transform="scale(1.3333333)" /><path
       id="path4"
       d="m 17.484,7.797 h 12.414 c 0.887,0 1.602,0.719 1.602,1.601 v 35.379 c 0,0.887 -0.715,1.602 -1.602,1.602 H 17.484 c -0.886,0 -1.601,-0.715 -1.601,-1.602 V 9.398 c 0,-0.882 0.715,-1.601 1.601,-1.601 z"
       style="fill:#e6e6e6;fill-opacity:1;fill-rule:nonzero;stroke:#000000;stroke-width:0.0649828;stroke-linecap:butt;stroke-linejoin:miter;stroke-miterlimit:1;stroke-dasharray:none;stroke-opacity:0.905882"
       transform="scale(1.3333333)" /><path
       id="path5"
       d="m 18.188,7.312 h 12.417 c 0.887,0 1.602,0.715 1.602,1.602 v 35.379 c 0,0.891 -0.715,1.605 -1.602,1.605 H 18.188 c -0.887,0 -1.598,-0.714 -1.598,-1.605 V 8.914 c 0,-0.887 0.711,-1.602 1.598,-1.602 z"
       style="fill:#e6e6e6;fill-opacity:1;fill-rule:nonzero;stroke:#000000;stroke-width:0.0649828;stroke-linecap:butt;stroke-linejoin:miter;stroke-miterlimit:1;stroke-dasharray:none;stroke-opacity:0.905882"
       transform="scale(1.3333333)" /><path
       id="path6"
       d="m 18.758,6.82 h 12.418 c 0.886,0 1.597,0.715 1.597,1.602 v 35.383 c 0,0.883 -0.711,1.597 -1.597,1.597 H 18.758 c -0.887,0 -1.602,-0.714 -1.602,-1.597 V 8.422 c 0,-0.887 0.715,-1.602 1.602,-1.602 z"
       style="fill:#e6e6e6;fill-opacity:1;fill-rule:nonzero;stroke:#000000;stroke-width:0.0649828;stroke-linecap:butt;stroke-linejoin:miter;stroke-miterlimit:1;stroke-dasharray:none;stroke-opacity:0.905882"
       transform="scale(1.3333333)" /><path
       id="path7"
       d="m 17.551,10.004 h 3.16 v 32.875 h -3.16 z"
       style="fill:#ffffff;fill-opacity:1;fill-rule:nonzero;stroke:#000000;stroke-width:0.0475265;stroke-linecap:butt;stroke-linejoin:miter;stroke-miterlimit:1;stroke-dasharray:none;stroke-opacity:0.905882"
       transform="scale(1.3333333)" /><path
       id="path8"
       d="m 21.363,10.004 h 3.16 v 32.875 h -3.16 z"
       style="fill:#ffffff;fill-opacity:1;fill-rule:nonzero;stroke:#000000;stroke-width:0.0475265;stroke-linecap:butt;stroke-linejoin:miter;stroke-miterlimit:1;stroke-dasharray:none;stroke-opacity:0.905882"
       transform="scale(1.3333333)" /><path
       id="path9"
       d="m 25.176,10.004 h 3.156 v 32.875 h -3.156 z"
       style="fill:#ffffff;fill-opacity:1;fill-rule:nonzero;stroke:#000000;stroke-width:0.0475265;stroke-linecap:butt;stroke-linejoin:miter;stroke-miterlimit:1;stroke-dasharray:none;stroke-opacity:0.905882"
       transform="scale(1.3333333)" /><path
       id="path10"
       d="m 29.168,10.004 h 3.16 v 32.875 h -3.16 z"
       style="fill:#ffffff;fill-opacity:1;fill-rule:nonzero;stroke:#000000;stroke-width:0.0475265;stroke-linecap:butt;stroke-linejoin:miter;stroke-miterlimit:1;stroke-dasharray:none;stroke-opacity:0.905882"
       transform="scale(1.3333333)" /><path
       id="path11"
       d="m 11.41,26.648 h 4.461"
       style="fill:none;stroke:#000000;stroke-width:0.419528;stroke-linecap:butt;stroke-linejoin:miter;stroke-miterlimit:4;stroke-dasharray:none;stroke-opacity:0.905882"
       transform="scale(1.3333333)" /><path
       id="path12"
       d="m 15.871,19.469 -2.535,0.023 v 7.156"
       style="fill:none;stroke:#000000;stroke-width:0.419528;stroke-linecap:butt;stroke-linejoin:miter;stroke-miterlimit:4;stroke-dasharray:none;stroke-opacity:0.905882"
       transform="scale(1.3333333)" /><path
       id="path13"
       d="M 15.871,33.605 13.336,33.574 V 26.418"
       style="fill:none;stroke:#000000;stroke-width:0.419528;stroke-linecap:butt;stroke-linejoin:miter;stroke-miterlimit:4;stroke-dasharray:none;stroke-opacity:0.905882"
       transform="scale(1.3333333)" /><path
       id="path14"
       d="m 19.133,10.004 c 0,0 0.933,-2.234 1.906,-2.234 0.969,0 1.902,2.234 1.902,2.234"
       style="fill:none;stroke:#29d08d;stroke-width:0.159097;stroke-linecap:butt;stroke-linejoin:miter;stroke-miterlimit:4;stroke-dasharray:none;stroke-opacity:0.905882"
       transform="scale(1.3333333)" /><path
       id="path15"
       d="M 23.121,10.43 22.492,9.945 23.219,9.637 Z"
       style="fill:#29d08d;fill-opacity:1;fill-rule:evenodd;stroke:#29d08d;stroke-width:0.106064;stroke-linecap:butt;stroke-linejoin:miter;stroke-miterlimit:4;stroke-dasharray:none;stroke-opacity:1"
       transform="scale(1.3333333)" /><path
       id="path16"
       d="m 26.707,10.004 c 0,0 0.938,-2.234 1.906,-2.234 0.973,0 1.907,2.234 1.907,2.234"
       style="fill:none;stroke:#29d08d;stroke-width:0.159097;stroke-linecap:butt;stroke-linejoin:miter;stroke-miterlimit:4;stroke-dasharray:none;stroke-opacity:0.905882"
       transform="scale(1.3333333)" /><path
       id="path17"
       d="M 30.699,10.43 30.066,9.949 30.793,9.633 Z"
       style="fill:#29d08d;fill-opacity:1;fill-rule:evenodd;stroke:#29d08d;stroke-width:0.106064;stroke-linecap:butt;stroke-linejoin:miter;stroke-miterlimit:4;stroke-dasharray:none;stroke-opacity:1"
       transform="scale(1.3333333)" /><path
       id="path18"
       d="m 19.133,10.004 c 0,0 0.933,-2.234 1.906,-2.234 0.969,0 1.902,2.234 1.902,2.234"
       style="fill:none;stroke:#000000;stroke-width:0.159097;stroke-linecap:butt;stroke-linejoin:miter;stroke-miterlimit:4;stroke-dasharray:none;stroke-opacity:0.905882"
       transform="scale(1.3333333)" /><path
       id="path19"
       d="M 23.121,10.43 22.492,9.945 23.219,9.637 Z"
       style="fill:#000000;fill-opacity:1;fill-rule:evenodd;stroke:#000000;stroke-width:0.106064;stroke-linecap:butt;stroke-linejoin:miter;stroke-miterlimit:4;stroke-dasharray:none;stroke-opacity:1"
       transform="scale(1.3333333)" /><path
       id="path20"
       d="m 26.707,10.004 c 0,0 0.938,-2.234 1.906,-2.234 0.973,0 1.907,2.234 1.907,2.234"
       style="fill:none;stroke:#000000;stroke-width:0.159097;stroke-linecap:butt;stroke-linejoin:miter;stroke-miterlimit:4;stroke-dasharray:none;stroke-opacity:0.905882"
       transform="scale(1.3333333)" /><path
       id="path21"
       d="M 30.699,10.43 30.066,9.949 30.793,9.633 Z"
       style="fill:#000000;fill-opacity:1;fill-rule:evenodd;stroke:#000000;stroke-width:0.106064;stroke-linecap:butt;stroke-linejoin:miter;stroke-miterlimit:4;stroke-dasharray:none;stroke-opacity:1"
       transform="scale(1.3333333)" /><path
       id="path22"
       d="m 7.242,0.164 h 23.711 c 1.852,0 3.344,1.492 3.344,3.348 v 41.761 c 0,1.852 -1.492,3.344 -3.344,3.344 H 7.242 c -1.851,0 -3.344,-1.492 -3.344,-3.344 V 3.512 c 0,-1.856 1.493,-3.348 3.344,-3.348 z"
       style="fill:none;stroke:#29d08d;stroke-width:0.331654;stroke-linecap:butt;stroke-linejoin:miter;stroke-miterlimit:1;stroke-dasharray:none;stroke-opacity:0.905882"
       transform="scale(1.3333333)" /><path
       id="path23"
       d="m 11.391,26.828 c 0,1.195 -1.02,2.164 -2.274,2.164 -1.254,0 -2.273,-0.969 -2.273,-2.164 0,-1.187 1.019,-2.16 2.273,-2.16 1.254,0 2.274,0.973 2.274,2.16 z"
       style="fill:#c4b7c8;fill-opacity:1;fill-rule:nonzero;stroke:none"
       transform="scale(1.3333333)" /><text
       id="text23"
       xml:space="preserve"
       transform="matrix(1.3333333,0,0,1.3333333,10.529077,36.331087)"><tspan
         style="font-variant:normal;font-weight:normal;font-size:1.57928px;font-family:Verdana;writing-mode:lr-tb;fill:#000000;fill-opacity:1;fill-rule:nonzero;stroke:none"
         x="0 0.82280028 1.7712954"
         y="0"
         sodipodi:role="line"
         id="tspan23">cat</tspan></text><g
       id="g4"
       transform="translate(-5.1346665,0.00333333)"><path
         id="path24"
         d="m 22.129,35.68 c -0.09,0.027 -0.098,0.07 -0.098,0.144 v 0.196 c 0,0.039 0,0.105 0.082,0.105 0.086,0 0.086,-0.063 0.086,-0.105 v -0.075 h 1.356 v 0.075 c 0,0.039 0,0.105 0.082,0.105 0.086,0 0.086,-0.063 0.086,-0.105 v -0.297 c 0,-0.043 0,-0.118 -0.082,-0.118 -0.086,0 -0.086,0.075 -0.086,0.118 v 0.066 h -1.317 v -0.004 l 1.383,-0.508 c 0.098,-0.035 0.102,-0.082 0.102,-0.152 0,-0.082 -0.008,-0.113 -0.114,-0.113 h -1.41 v -0.074 c 0,-0.04 0,-0.106 -0.082,-0.106 -0.086,0 -0.086,0.066 -0.086,0.106 v 0.296 c 0,0.043 0,0.114 0.086,0.114 0.082,0 0.082,-0.075 0.082,-0.114 v -0.07 h 1.317 z"
         style="fill:#000000;fill-opacity:1;fill-rule:nonzero;stroke:none"
         transform="scale(1.3333333)" /><path
         id="path25"
         d="m 23.125,33.457 c -0.348,0 -0.621,0.254 -0.621,0.566 0,0.309 0.273,0.575 0.621,0.575 0.352,0 0.613,-0.27 0.613,-0.575 0,-0.296 -0.261,-0.566 -0.613,-0.566 z m 0.445,0.566 c 0,0.207 -0.207,0.379 -0.465,0.379 -0.25,0 -0.433,-0.179 -0.433,-0.379 0,-0.199 0.183,-0.375 0.433,-0.375 0.258,0 0.465,0.172 0.465,0.375 z"
         style="fill:#000000;fill-opacity:1;fill-rule:nonzero;stroke:none"
         transform="scale(1.3333333)" /><path
         id="path26"
         d="m 23.207,32.684 c -0.262,0 -0.527,-0.161 -0.527,-0.496 0.066,0 0.125,-0.051 0.125,-0.122 0,-0.062 -0.047,-0.117 -0.117,-0.117 -0.059,0 -0.176,0.031 -0.176,0.262 0,0.144 0.054,0.316 0.226,0.473 h -0.093 c -0.09,0 -0.114,0.015 -0.114,0.109 v 0.309 c 0,0.043 0,0.109 0.082,0.109 0.086,0 0.086,-0.066 0.086,-0.109 v -0.231 h 0.856 v 0.231 c 0,0.043 0,0.109 0.082,0.109 0.086,0 0.086,-0.066 0.086,-0.109 v -0.723 c 0,-0.047 0,-0.113 -0.082,-0.113 -0.086,0 -0.086,0.066 -0.086,0.113 v 0.305 z"
         style="fill:#000000;fill-opacity:1;fill-rule:nonzero;stroke:none"
         transform="scale(1.3333333)" /><path
         id="path27"
         d="m 22.613,31.543 c -0.082,0.012 -0.082,0.062 -0.082,0.109 v 0.09 c 0,0.043 0,0.117 0.082,0.117 0.086,0 0.086,-0.062 0.086,-0.164 h 0.856 c 0,0.102 0,0.164 0.086,0.164 0.082,0 0.082,-0.078 0.082,-0.117 v -0.246 c 0,-0.039 0,-0.105 -0.082,-0.105 -0.086,0 -0.086,0.05 -0.086,0.152 h -0.496 c -0.247,0 -0.379,-0.109 -0.379,-0.227 0,-0.066 0.05,-0.097 0.226,-0.097 h 0.649 c 0,0.054 0,0.117 0.086,0.117 0.082,0 0.082,-0.074 0.082,-0.113 V 31.02 c 0,-0.043 0,-0.122 -0.082,-0.122 -0.086,0 -0.086,0.063 -0.086,0.164 h -0.496 c -0.247,0 -0.379,-0.117 -0.379,-0.234 0,-0.055 0.05,-0.098 0.226,-0.098 h 0.649 c 0,0.051 0,0.125 0.086,0.125 0.082,0 0.082,-0.078 0.082,-0.117 v -0.207 c 0,-0.043 0,-0.113 -0.082,-0.113 -0.086,0 -0.086,0.059 -0.086,0.156 h -0.668 c -0.059,0 -0.375,0 -0.375,0.246 0,0.082 0.035,0.2 0.144,0.278 -0.09,0.043 -0.144,0.121 -0.144,0.214 0,0.086 0.039,0.168 0.101,0.231 z"
         style="fill:#000000;fill-opacity:1;fill-rule:nonzero;stroke:none"
         transform="scale(1.3333333)" /><path
         id="path28"
         d="m 23.637,29.379 c 0.082,-0.063 0.086,-0.191 0.086,-0.297 0,-0.078 0,-0.137 -0.086,-0.137 -0.082,0 -0.082,0.071 -0.082,0.11 0,0.113 -0.016,0.14 -0.024,0.168 h -0.593 c -0.2,0 -0.434,0.144 -0.434,0.55 0,0.118 0,0.395 0.203,0.395 0.082,0 0.125,-0.059 0.125,-0.121 0,-0.043 -0.02,-0.117 -0.125,-0.117 -0.019,0 -0.027,-0.012 -0.031,-0.067 0,-0.039 0,-0.074 0,-0.097 0,-0.207 0.086,-0.352 0.281,-0.352 0.012,0.484 0.148,0.828 0.414,0.828 0.191,0 0.371,-0.176 0.371,-0.457 0,-0.101 -0.019,-0.273 -0.101,-0.406 z m -0.516,0.035 h 0.234 c 0.059,0 0.122,0 0.168,0.106 0.047,0.097 0.047,0.222 0.047,0.246 0,0.172 -0.093,0.289 -0.203,0.289 -0.133,0 -0.238,-0.243 -0.246,-0.641 z"
         style="fill:#000000;fill-opacity:1;fill-rule:nonzero;stroke:none"
         transform="scale(1.3333333)" /><path
         id="path29"
         d="m 22.145,28.121 c -0.083,0 -0.114,0.012 -0.114,0.109 v 0.438 c 0,0.043 0,0.113 0.086,0.113 0.082,0 0.082,-0.074 0.082,-0.113 v -0.356 h 1.356 v 0.356 c 0,0.043 0,0.113 0.086,0.113 0.082,0 0.082,-0.074 0.082,-0.113 v -0.902 c 0,-0.047 0,-0.118 -0.082,-0.118 -0.086,0 -0.086,0.063 -0.086,0.118 v 0.355 z"
         style="fill:#000000;fill-opacity:1;fill-rule:nonzero;stroke:none"
         transform="scale(1.3333333)" /><path
         id="path30"
         d="m 22.645,26.637 c -0.09,0 -0.114,0.015 -0.114,0.105 v 0.399 c 0,0.043 0,0.109 0.082,0.109 0.086,0 0.086,-0.066 0.086,-0.109 v -0.317 h 0.856 v 0.336 c 0,0.043 0,0.113 0.086,0.113 0.082,0 0.082,-0.07 0.082,-0.113 v -0.812 c 0,-0.043 0,-0.118 -0.082,-0.118 -0.086,0 -0.086,0.075 -0.086,0.118 v 0.289 z m -0.481,0 c -0.074,0 -0.133,0.058 -0.133,0.136 0,0.082 0.059,0.137 0.133,0.137 0.078,0 0.141,-0.055 0.141,-0.137 0,-0.078 -0.063,-0.136 -0.141,-0.136 z"
         style="fill:#000000;fill-opacity:1;fill-rule:nonzero;stroke:none"
         transform="scale(1.3333333)" /><path
         id="path31"
         d="m 22.734,24.793 c -0.058,-0.059 -0.062,-0.059 -0.109,-0.059 -0.094,0 -0.094,0.059 -0.094,0.118 v 0.937 c 0,0.09 0.02,0.113 0.114,0.113 h 0.128 c 0.051,0 0.114,0 0.114,-0.093 0,-0.098 -0.063,-0.098 -0.114,-0.098 h -0.074 v -0.688 l 0.821,0.864 c 0.054,0.054 0.058,0.058 0.109,0.058 0.094,0 0.094,-0.058 0.094,-0.113 v -1.051 c -0.016,-0.054 -0.075,-0.054 -0.114,-0.054 h -0.16 c -0.051,0 -0.113,0 -0.113,0.089 0,0.094 0.059,0.094 0.113,0.094 h 0.106 v 0.75 z"
         style="fill:#000000;fill-opacity:1;fill-rule:nonzero;stroke:none"
         transform="scale(1.3333333)" /><path
         id="path32"
         d="m 23.637,23.57 c 0.082,-0.058 0.086,-0.191 0.086,-0.297 0,-0.078 0,-0.136 -0.086,-0.136 -0.082,0 -0.082,0.066 -0.082,0.105 0,0.117 -0.016,0.149 -0.024,0.164 h -0.593 c -0.2,0 -0.434,0.156 -0.434,0.551 0,0.117 0,0.402 0.203,0.402 0.082,0 0.125,-0.054 0.125,-0.121 0,-0.047 -0.02,-0.125 -0.125,-0.125 -0.019,0 -0.027,-0.004 -0.031,-0.054 0,-0.039 0,-0.079 0,-0.106 0,-0.207 0.086,-0.348 0.281,-0.348 0.012,0.489 0.148,0.833 0.414,0.833 0.191,0 0.371,-0.176 0.371,-0.458 0,-0.109 -0.019,-0.281 -0.101,-0.41 z m -0.516,0.035 h 0.234 c 0.059,0 0.122,0 0.168,0.102 0.047,0.105 0.047,0.231 0.047,0.246 0,0.176 -0.093,0.289 -0.203,0.289 -0.133,0 -0.238,-0.238 -0.246,-0.637 z"
         style="fill:#000000;fill-opacity:1;fill-rule:nonzero;stroke:none"
         transform="scale(1.3333333)" /><path
         id="path33"
         d="m 22.699,22.52 v -0.458 c 0,-0.039 0,-0.109 -0.082,-0.109 -0.086,0 -0.086,0.07 -0.086,0.109 v 0.458 h -0.226 c -0.051,0 -0.114,0 -0.114,0.089 0,0.098 0.055,0.098 0.114,0.098 h 0.226 v 0.242 c 0,0.043 0,0.113 0.086,0.113 0.082,0 0.082,-0.07 0.082,-0.109 v -0.246 h 0.676 c 0.266,0 0.363,-0.184 0.363,-0.391 0,-0.203 -0.121,-0.421 -0.363,-0.421 -0.051,0 -0.109,0 -0.109,0.089 0,0.094 0.058,0.098 0.105,0.098 0.176,0 0.199,0.16 0.199,0.227 0,0.211 -0.14,0.211 -0.211,0.211 z"
         style="fill:#000000;fill-opacity:1;fill-rule:nonzero;stroke:none"
         transform="scale(1.3333333)" /><path
         id="path34"
         d="m 22.645,20.824 c -0.09,0 -0.114,0.016 -0.114,0.114 v 0.39 c 0,0.043 0,0.113 0.082,0.113 0.086,0 0.086,-0.07 0.086,-0.113 V 21.02 h 0.856 v 0.332 c 0,0.046 0,0.109 0.086,0.109 0.082,0 0.082,-0.063 0.082,-0.109 v -0.817 c 0,-0.043 0,-0.109 -0.082,-0.109 -0.086,0 -0.086,0.066 -0.086,0.109 v 0.289 z m -0.481,0 c -0.074,0 -0.133,0.067 -0.133,0.145 0,0.074 0.059,0.136 0.133,0.136 0.078,0 0.141,-0.062 0.141,-0.136 0,-0.078 -0.063,-0.145 -0.141,-0.145 z"
         style="fill:#000000;fill-opacity:1;fill-rule:nonzero;stroke:none"
         transform="scale(1.3333333)" /><path
         id="path35"
         d="m 23.125,18.938 c -0.348,0 -0.621,0.253 -0.621,0.566 0,0.308 0.273,0.566 0.621,0.566 0.352,0 0.613,-0.261 0.613,-0.566 0,-0.305 -0.261,-0.566 -0.613,-0.566 z m 0.445,0.566 c 0,0.203 -0.207,0.375 -0.465,0.375 -0.25,0 -0.433,-0.18 -0.433,-0.375 0,-0.195 0.183,-0.379 0.433,-0.379 0.258,0 0.465,0.176 0.465,0.379 z"
         style="fill:#000000;fill-opacity:1;fill-rule:nonzero;stroke:none"
         transform="scale(1.3333333)" /><path
         id="path36"
         d="m 22.66,18.316 c -0.086,0 -0.129,0 -0.129,0.114 v 0.199 c 0,0.043 0,0.109 0.086,0.109 0.082,0 0.082,-0.066 0.082,-0.101 v -0.133 h 0.856 v 0.125 c 0,0.043 0,0.109 0.086,0.109 0.082,0 0.082,-0.066 0.082,-0.101 v -0.449 c 0,-0.04 0,-0.106 -0.082,-0.106 -0.086,0 -0.086,0.066 -0.086,0.113 v 0.121 h -0.493 c -0.277,0 -0.382,-0.207 -0.382,-0.343 0,-0.149 0.078,-0.188 0.246,-0.188 h 0.629 v 0.11 c 0,0.043 0,0.117 0.086,0.117 0.082,0 0.082,-0.078 0.082,-0.117 v -0.422 c 0,-0.039 0,-0.118 -0.082,-0.118 -0.086,0 -0.086,0.075 -0.086,0.122 v 0.121 H 22.91 c -0.277,0 -0.398,0.136 -0.398,0.355 0,0.188 0.097,0.313 0.148,0.363 z"
         style="fill:#000000;fill-opacity:1;fill-rule:nonzero;stroke:none"
         transform="scale(1.3333333)" /></g><g
       id="g2"
       transform="translate(-5.2866665,-0.00266667)"><path
         id="path37"
         d="m 29.973,35.68 c -0.09,0.027 -0.098,0.07 -0.098,0.144 v 0.196 c 0,0.039 0,0.105 0.082,0.105 0.086,0 0.086,-0.063 0.086,-0.105 v -0.075 h 1.352 v 0.075 c 0,0.039 0,0.105 0.085,0.105 0.086,0 0.086,-0.063 0.086,-0.105 v -0.297 c 0,-0.043 0,-0.118 -0.082,-0.118 -0.089,0 -0.089,0.075 -0.089,0.118 v 0.066 h -1.313 v -0.004 l 1.383,-0.508 c 0.097,-0.035 0.101,-0.082 0.101,-0.152 0,-0.082 -0.007,-0.113 -0.113,-0.113 h -1.41 v -0.074 c 0,-0.04 0,-0.106 -0.082,-0.106 -0.086,0 -0.086,0.066 -0.086,0.106 v 0.296 c 0,0.043 0,0.114 0.086,0.114 0.082,0 0.082,-0.075 0.082,-0.114 v -0.07 h 1.312 z"
         style="fill:#000000;fill-opacity:1;fill-rule:nonzero;stroke:none"
         transform="scale(1.3333333)" /><path
         id="path38"
         d="m 30.965,33.457 c -0.344,0 -0.617,0.254 -0.617,0.566 0,0.309 0.273,0.575 0.617,0.575 0.351,0 0.617,-0.27 0.617,-0.575 0,-0.296 -0.266,-0.566 -0.617,-0.566 z m 0.449,0.566 c 0,0.207 -0.207,0.379 -0.465,0.379 -0.25,0 -0.433,-0.179 -0.433,-0.379 0,-0.199 0.183,-0.375 0.433,-0.375 0.258,0 0.465,0.172 0.465,0.375 z"
         style="fill:#000000;fill-opacity:1;fill-rule:nonzero;stroke:none"
         transform="scale(1.3333333)" /><path
         id="path39"
         d="m 31.051,32.684 c -0.262,0 -0.528,-0.161 -0.528,-0.496 0.067,0 0.122,-0.051 0.122,-0.122 0,-0.062 -0.043,-0.117 -0.118,-0.117 -0.054,0 -0.172,0.031 -0.172,0.262 0,0.144 0.051,0.316 0.227,0.473 h -0.098 c -0.086,0 -0.113,0.015 -0.113,0.109 v 0.309 c 0,0.043 0,0.109 0.082,0.109 0.09,0 0.09,-0.066 0.09,-0.109 v -0.231 h 0.852 v 0.231 c 0,0.043 0,0.109 0.085,0.109 0.086,0 0.086,-0.066 0.086,-0.109 v -0.723 c 0,-0.047 0,-0.113 -0.082,-0.113 -0.089,0 -0.089,0.066 -0.089,0.113 v 0.305 z"
         style="fill:#000000;fill-opacity:1;fill-rule:nonzero;stroke:none"
         transform="scale(1.3333333)" /><path
         id="path40"
         d="m 30.453,31.543 c -0.082,0.012 -0.082,0.062 -0.082,0.109 v 0.09 c 0,0.043 0,0.117 0.082,0.117 0.09,0 0.09,-0.062 0.09,-0.164 h 0.852 c 0,0.102 0,0.164 0.089,0.164 0.082,0 0.082,-0.078 0.082,-0.117 v -0.246 c 0,-0.039 0,-0.105 -0.082,-0.105 -0.089,0 -0.089,0.05 -0.089,0.152 h -0.493 c -0.246,0 -0.379,-0.109 -0.379,-0.227 0,-0.066 0.047,-0.097 0.227,-0.097 h 0.645 c 0,0.054 0,0.117 0.089,0.117 0.082,0 0.082,-0.074 0.082,-0.113 V 31.02 c 0,-0.043 0,-0.122 -0.082,-0.122 -0.089,0 -0.089,0.063 -0.089,0.164 h -0.493 c -0.246,0 -0.379,-0.117 -0.379,-0.234 0,-0.055 0.047,-0.098 0.227,-0.098 h 0.645 c 0,0.051 0,0.125 0.089,0.125 0.082,0 0.082,-0.078 0.082,-0.117 v -0.207 c 0,-0.043 0,-0.113 -0.082,-0.113 -0.089,0 -0.089,0.059 -0.089,0.156 h -0.668 c -0.055,0 -0.372,0 -0.372,0.246 0,0.082 0.036,0.2 0.145,0.278 -0.094,0.043 -0.145,0.121 -0.145,0.214 0,0.086 0.04,0.168 0.098,0.231 z"
         style="fill:#000000;fill-opacity:1;fill-rule:nonzero;stroke:none"
         transform="scale(1.3333333)" /><path
         id="path41"
         d="m 31.48,29.379 c 0.082,-0.063 0.086,-0.191 0.086,-0.297 0,-0.078 0,-0.137 -0.086,-0.137 -0.085,0 -0.085,0.071 -0.085,0.11 0,0.113 -0.012,0.14 -0.02,0.168 h -0.598 c -0.195,0 -0.429,0.144 -0.429,0.55 0,0.118 0,0.395 0.203,0.395 0.082,0 0.125,-0.059 0.125,-0.121 0,-0.043 -0.028,-0.117 -0.125,-0.117 -0.024,0 -0.028,-0.012 -0.031,-0.067 0,-0.039 0,-0.074 0,-0.097 0,-0.207 0.085,-0.352 0.277,-0.352 0.012,0.484 0.148,0.828 0.414,0.828 0.195,0 0.371,-0.176 0.371,-0.457 0,-0.101 -0.02,-0.273 -0.098,-0.406 z m -0.519,0.035 h 0.234 c 0.063,0 0.121,0 0.172,0.106 0.047,0.097 0.047,0.222 0.047,0.246 0,0.172 -0.098,0.289 -0.203,0.289 -0.137,0 -0.238,-0.243 -0.25,-0.641 z"
         style="fill:#000000;fill-opacity:1;fill-rule:nonzero;stroke:none"
         transform="scale(1.3333333)" /><path
         id="path42"
         d="m 29.984,28.121 c -0.082,0 -0.109,0.012 -0.109,0.109 v 0.438 c 0,0.043 0,0.113 0.086,0.113 0.082,0 0.082,-0.074 0.082,-0.113 v -0.356 h 1.352 v 0.356 c 0,0.043 0,0.113 0.089,0.113 0.082,0 0.082,-0.074 0.082,-0.113 v -0.902 c 0,-0.047 0,-0.118 -0.082,-0.118 -0.089,0 -0.089,0.063 -0.089,0.118 v 0.355 z"
         style="fill:#000000;fill-opacity:1;fill-rule:nonzero;stroke:none"
         transform="scale(1.3333333)" /><path
         id="path43"
         d="m 30.484,26.637 c -0.086,0 -0.113,0.015 -0.113,0.105 v 0.399 c 0,0.043 0,0.109 0.082,0.109 0.09,0 0.09,-0.066 0.09,-0.109 v -0.317 h 0.852 v 0.336 c 0,0.043 0,0.113 0.089,0.113 0.082,0 0.082,-0.07 0.082,-0.113 v -0.812 c 0,-0.043 0,-0.118 -0.082,-0.118 -0.089,0 -0.089,0.075 -0.089,0.118 v 0.289 z m -0.476,0 c -0.074,0 -0.133,0.058 -0.133,0.136 0,0.082 0.059,0.137 0.133,0.137 0.078,0 0.14,-0.055 0.14,-0.137 0,-0.078 -0.062,-0.136 -0.14,-0.136 z"
         style="fill:#000000;fill-opacity:1;fill-rule:nonzero;stroke:none"
         transform="scale(1.3333333)" /><path
         id="path44"
         d="m 30.578,24.793 c -0.058,-0.059 -0.062,-0.059 -0.109,-0.059 -0.098,0 -0.098,0.059 -0.098,0.118 v 0.937 c 0,0.09 0.024,0.113 0.113,0.113 h 0.133 c 0.051,0 0.11,0 0.11,-0.093 0,-0.098 -0.059,-0.098 -0.11,-0.098 h -0.074 v -0.688 l 0.82,0.864 c 0.055,0.054 0.059,0.058 0.106,0.058 0.097,0 0.097,-0.058 0.097,-0.113 v -1.051 c -0.019,-0.054 -0.074,-0.054 -0.113,-0.054 h -0.16 c -0.055,0 -0.113,0 -0.113,0.089 0,0.094 0.054,0.094 0.113,0.094 h 0.102 v 0.75 z"
         style="fill:#000000;fill-opacity:1;fill-rule:nonzero;stroke:none"
         transform="scale(1.3333333)" /><path
         id="path45"
         d="m 31.48,23.57 c 0.082,-0.058 0.086,-0.191 0.086,-0.297 0,-0.078 0,-0.136 -0.086,-0.136 -0.085,0 -0.085,0.066 -0.085,0.105 0,0.117 -0.012,0.149 -0.02,0.164 h -0.598 c -0.195,0 -0.429,0.156 -0.429,0.551 0,0.117 0,0.402 0.203,0.402 0.082,0 0.125,-0.054 0.125,-0.121 0,-0.047 -0.028,-0.125 -0.125,-0.125 -0.024,0 -0.028,-0.004 -0.031,-0.054 0,-0.039 0,-0.079 0,-0.106 0,-0.207 0.085,-0.348 0.277,-0.348 0.012,0.489 0.148,0.833 0.414,0.833 0.195,0 0.371,-0.176 0.371,-0.458 0,-0.109 -0.02,-0.281 -0.098,-0.41 z m -0.519,0.035 h 0.234 c 0.063,0 0.121,0 0.172,0.102 0.047,0.105 0.047,0.231 0.047,0.246 0,0.176 -0.098,0.289 -0.203,0.289 -0.137,0 -0.238,-0.238 -0.25,-0.637 z"
         style="fill:#000000;fill-opacity:1;fill-rule:nonzero;stroke:none"
         transform="scale(1.3333333)" /><path
         id="path46"
         d="m 30.543,22.52 v -0.458 c 0,-0.039 0,-0.109 -0.082,-0.109 -0.09,0 -0.09,0.07 -0.09,0.109 v 0.458 h -0.223 c -0.054,0 -0.113,0 -0.113,0.089 0,0.098 0.055,0.098 0.113,0.098 h 0.223 v 0.242 c 0,0.043 0,0.113 0.09,0.113 0.082,0 0.082,-0.07 0.082,-0.109 v -0.246 h 0.676 c 0.265,0 0.363,-0.184 0.363,-0.391 0,-0.203 -0.121,-0.421 -0.363,-0.421 -0.051,0 -0.11,0 -0.11,0.089 0,0.094 0.059,0.098 0.106,0.098 0.172,0 0.199,0.16 0.199,0.227 0,0.211 -0.144,0.211 -0.215,0.211 z"
         style="fill:#000000;fill-opacity:1;fill-rule:nonzero;stroke:none"
         transform="scale(1.3333333)" /><path
         id="path47"
         d="m 30.484,20.824 c -0.086,0 -0.113,0.016 -0.113,0.114 v 0.39 c 0,0.043 0,0.113 0.082,0.113 0.09,0 0.09,-0.07 0.09,-0.113 V 21.02 h 0.852 v 0.332 c 0,0.046 0,0.109 0.089,0.109 0.082,0 0.082,-0.063 0.082,-0.109 v -0.817 c 0,-0.043 0,-0.109 -0.082,-0.109 -0.089,0 -0.089,0.066 -0.089,0.109 v 0.289 z m -0.476,0 c -0.074,0 -0.133,0.067 -0.133,0.145 0,0.074 0.059,0.136 0.133,0.136 0.078,0 0.14,-0.062 0.14,-0.136 0,-0.078 -0.062,-0.145 -0.14,-0.145 z"
         style="fill:#000000;fill-opacity:1;fill-rule:nonzero;stroke:none"
         transform="scale(1.3333333)" /><path
         id="path48"
         d="m 30.965,18.938 c -0.344,0 -0.617,0.253 -0.617,0.566 0,0.308 0.273,0.566 0.617,0.566 0.351,0 0.617,-0.261 0.617,-0.566 0,-0.305 -0.266,-0.566 -0.617,-0.566 z m 0.449,0.566 c 0,0.203 -0.207,0.375 -0.465,0.375 -0.25,0 -0.433,-0.18 -0.433,-0.375 0,-0.195 0.183,-0.379 0.433,-0.379 0.258,0 0.465,0.176 0.465,0.379 z"
         style="fill:#000000;fill-opacity:1;fill-rule:nonzero;stroke:none"
         transform="scale(1.3333333)" /><path
         id="path49"
         d="m 30.504,18.316 c -0.09,0 -0.133,0 -0.133,0.114 v 0.199 c 0,0.043 0,0.109 0.09,0.109 0.082,0 0.082,-0.066 0.082,-0.101 v -0.133 h 0.852 v 0.125 c 0,0.043 0,0.109 0.089,0.109 0.082,0 0.082,-0.066 0.082,-0.101 v -0.449 c 0,-0.04 0,-0.106 -0.082,-0.106 -0.089,0 -0.089,0.066 -0.089,0.113 v 0.121 h -0.489 c -0.277,0 -0.383,-0.207 -0.383,-0.343 0,-0.149 0.079,-0.188 0.243,-0.188 h 0.629 v 0.11 c 0,0.043 0,0.117 0.089,0.117 0.082,0 0.082,-0.078 0.082,-0.117 v -0.422 c 0,-0.039 0,-0.118 -0.082,-0.118 -0.089,0 -0.089,0.075 -0.089,0.122 v 0.121 h -0.641 c -0.277,0 -0.399,0.136 -0.399,0.355 0,0.188 0.094,0.313 0.149,0.363 z"
         style="fill:#000000;fill-opacity:1;fill-rule:nonzero;stroke:none"
         transform="scale(1.3333333)" /></g><g
       id="g3"
       transform="translate(5.2866665,0.00266667)"><path
         id="path50"
         d="m 26.59,28.074 c 0.098,0.035 0.176,0.063 0.258,0.074 v 0.004 c -0.129,0.032 -0.848,0.27 -0.868,0.282 -0.062,0.023 -0.062,0.093 -0.062,0.132 v 0.161 c 0,0.039 0,0.101 0.082,0.101 0.086,0 0.086,-0.055 0.086,-0.14 h 1.352 c 0,0.085 0,0.14 0.089,0.14 0.082,0 0.082,-0.062 0.082,-0.101 v -0.235 c 0,-0.039 0,-0.105 -0.082,-0.105 -0.089,0 -0.089,0.051 -0.089,0.144 h -1.317 v -0.004 c 0.125,-0.031 0.66,-0.211 0.691,-0.215 0.067,-0.031 0.172,-0.062 0.188,-0.078 0.023,-0.011 0.043,-0.046 0.043,-0.082 0,-0.035 -0.02,-0.074 -0.059,-0.09 -0.019,-0.007 -0.714,-0.25 -0.863,-0.281 v -0.004 h 1.317 c 0,0.086 0,0.149 0.089,0.149 0.082,0 0.082,-0.071 0.082,-0.114 v -0.226 c 0,-0.043 0,-0.106 -0.082,-0.106 -0.089,0 -0.089,0.051 -0.089,0.141 h -1.352 c 0,-0.09 0,-0.141 -0.086,-0.141 -0.082,0 -0.082,0.063 -0.082,0.106 v 0.156 c 0,0.113 0.039,0.121 0.109,0.149 z"
         style="fill:#000000;fill-opacity:1;fill-rule:nonzero;stroke:none"
         transform="scale(1.3333333)" /><path
         id="path51"
         d="m 26.086,26.934 v -0.157 c 0,-0.039 0,-0.109 -0.082,-0.109 -0.086,0 -0.086,0.066 -0.086,0.109 v 0.453 c 0,0.043 0,0.114 0.086,0.114 0.082,0 0.082,-0.071 0.082,-0.114 v -0.109 h 1.352 v 0.109 c 0,0.043 0,0.114 0.089,0.114 0.082,0 0.082,-0.071 0.082,-0.114 v -1.042 c 0,-0.09 -0.027,-0.11 -0.113,-0.11 H 27.25 c -0.059,0 -0.113,0 -0.113,0.09 0,0.102 0.054,0.102 0.113,0.102 h 0.188 v 0.664 z"
         style="fill:#000000;fill-opacity:1;fill-rule:nonzero;stroke:none"
         transform="scale(1.3333333)" /><path
         id="path52"
         d="m 26.93,25.516 v -0.348 c 0,-0.32 -0.25,-0.52 -0.504,-0.52 -0.258,0 -0.508,0.204 -0.508,0.52 v 0.617 c 0,0.043 0,0.113 0.082,0.113 0.086,0 0.086,-0.07 0.086,-0.113 v -0.082 h 1.352 v 0.082 c 0,0.043 0,0.113 0.089,0.113 0.082,0 0.082,-0.07 0.082,-0.113 v -0.351 c 0,-0.043 0,-0.118 -0.082,-0.118 -0.089,0 -0.089,0.075 -0.089,0.118 v 0.082 z m -0.844,0 v -0.293 c 0,-0.27 0.191,-0.387 0.34,-0.387 0.144,0 0.336,0.117 0.336,0.387 v 0.293 z"
         style="fill:#000000;fill-opacity:1;fill-rule:nonzero;stroke:none"
         transform="scale(1.3333333)" /></g><path
       id="path53"
       d="m 11.73,26.742 c -0.011,0.125 -0.105,0.211 -0.203,0.196 -0.101,-0.016 -0.172,-0.129 -0.156,-0.25 0.016,-0.126 0.106,-0.211 0.203,-0.196 0.102,0.016 0.172,0.129 0.156,0.25"
       style="fill:#000000;fill-opacity:1;fill-rule:nonzero;stroke:#000000;stroke-width:0.419528;stroke-linecap:butt;stroke-linejoin:miter;stroke-miterlimit:1;stroke-dasharray:none;stroke-opacity:1"
       transform="scale(1.3333333)" /><path
       id="path54"
       d="m 0,17.363 7.016,0.008 0.007,8.551 0.082,0.019"
       style="fill:none;stroke:#6c8ebf;stroke-width:0.28063;stroke-linecap:butt;stroke-linejoin:miter;stroke-miterlimit:4;stroke-dasharray:none;stroke-opacity:1"
       transform="scale(1.3333333)" /><path
       id="path55"
       d="M 7.234,26.012 C 7.219,26.129 7.129,26.219 7.027,26.199 6.93,26.184 6.859,26.066 6.871,25.945 c 0.016,-0.121 0.106,-0.207 0.207,-0.191 0.098,0.019 0.168,0.133 0.156,0.258"
       style="fill:#000000;fill-opacity:1;fill-rule:nonzero;stroke:#000000;stroke-width:0.419528;stroke-linecap:butt;stroke-linejoin:miter;stroke-miterlimit:1;stroke-dasharray:none;stroke-opacity:1"
       transform="scale(1.3333333)" /><path
       id="path56"
       d="M 0.047,36.289 7.066,36.281 7.074,27.734 7.152,27.715"
       style="fill:none;stroke:#b85450;stroke-width:0.28063;stroke-linecap:butt;stroke-linejoin:miter;stroke-miterlimit:4;stroke-dasharray:none;stroke-opacity:1"
       transform="scale(1.3333333)" /><path
       id="path57"
       d="M 7.289,27.648 C 7.277,27.773 7.184,27.855 7.086,27.844 6.984,27.824 6.914,27.711 6.93,27.586 c 0.011,-0.117 0.105,-0.207 0.203,-0.188 0.101,0.016 0.172,0.129 0.156,0.25"
       style="fill:#000000;fill-opacity:1;fill-rule:nonzero;stroke:#000000;stroke-width:0.419528;stroke-linecap:butt;stroke-linejoin:miter;stroke-miterlimit:1;stroke-dasharray:none;stroke-opacity:1"
       transform="scale(1.3333333)" /><path
       id="path58"
       d="M 7.973,51.402 7.98,51.406 H 8 l 0.02,0.008 h 0.019 l 0.012,0.004 0.011,0.012 0.028,0.008 0.012,0.007 0.046,0.02 0.012,0.008 0.016,0.011 0.015,0.008 0.012,0.012 0.02,0.012 0.019,0.023 0.031,0.047 0.012,0.023 0.008,0.012 v 0.012 l 0.004,0.008 v 0.011 l 0.004,0.008 0.008,0.024 v 0.023 l 0.003,0.012 v 0.035 c 0,0.164 -0.132,0.348 -0.382,0.348 -0.086,0 -0.242,-0.012 -0.368,-0.098 C 7.43,51.922 7.418,51.789 7.414,51.73 c 0,-0.05 -0.004,-0.109 -0.105,-0.109 -0.11,0 -0.11,0.067 -0.11,0.129 v 0.414 c 0,0.051 0,0.129 0.094,0.129 0.07,0 0.09,-0.043 0.117,-0.145 0.125,0.094 0.317,0.145 0.52,0.145 0.359,0 0.586,-0.273 0.586,-0.551 0,-0.203 -0.114,-0.336 -0.149,-0.375 C 8.238,51.242 8.152,51.219 7.906,51.16 L 7.652,51.105 c -0.129,-0.039 -0.25,-0.148 -0.25,-0.296 0,-0.161 0.157,-0.309 0.379,-0.309 0.367,0 0.418,0.293 0.434,0.391 0.008,0.07 0.047,0.089 0.105,0.089 0.114,0 0.114,-0.066 0.114,-0.128 v -0.414 c 0,-0.051 0,-0.129 -0.098,-0.129 -0.074,0 -0.09,0.05 -0.113,0.148 -0.129,-0.113 -0.301,-0.148 -0.442,-0.148 -0.347,0 -0.582,0.246 -0.582,0.515 0,0.207 0.145,0.418 0.406,0.492 0.012,0 0.317,0.075 0.36,0.082 z"
       style="fill:#000000;fill-opacity:1;fill-rule:evenodd;stroke:none"
       transform="scale(1.3333333)" /><path
       id="path59"
       d="m 10.02,51.66 h 0.05 l 0.004,-0.004 h 0.016 l 0.004,-0.004 h 0.008 l 0.003,-0.004 h 0.004 l 0.012,-0.015 v -0.004 l 0.004,-0.008 v -0.004 l 0.004,-0.004 v -0.019 l 0.004,-0.004 v -0.035 l 0.004,-0.008 c 0,-0.356 -0.203,-0.664 -0.61,-0.664 -0.375,0 -0.675,0.312 -0.675,0.699 0,0.383 0.316,0.699 0.722,0.699 0.414,0 0.563,-0.281 0.563,-0.359 0,-0.09 -0.094,-0.09 -0.11,-0.09 -0.058,0 -0.082,0.012 -0.105,0.07 -0.067,0.16 -0.238,0.188 -0.328,0.188 -0.235,0 -0.469,-0.156 -0.52,-0.426 v -0.187 c 0.043,-0.231 0.235,-0.403 0.453,-0.403 0.164,0 0.356,0.078 0.383,0.403 H 9.074 v 0.187 z"
       style="fill:#000000;fill-opacity:1;fill-rule:evenodd;stroke:none"
       transform="scale(1.3333333)" /><path
       id="path60"
       d="m 11.27,50.477 v -0.051 l -0.004,-0.008 v -0.02 L 11.262,50.391 V 50.387 L 11.234,50.359 H 11.23 l -0.003,-0.004 h -0.008 l -0.004,-0.003 h -0.012 l -0.012,-0.004 h -0.539 c -0.05,0 -0.129,0 -0.129,0.097 0,0.086 0.082,0.086 0.125,0.086 h 0.411 v 1.539 h -0.403 c -0.054,0 -0.133,0 -0.133,0.098 0,0.094 0.082,0.094 0.125,0.094 h 1.036 c 0.046,0 0.125,0 0.125,-0.094 0,-0.098 -0.071,-0.098 -0.125,-0.098 h -0.411 z"
       style="fill:#000000;fill-opacity:1;fill-rule:evenodd;stroke:none"
       transform="scale(1.3333333)" /><path
       id="path61"
       d="m 12.781,51.102 h 0.383 c 0.047,0 0.125,0 0.125,-0.098 0,-0.098 -0.078,-0.098 -0.125,-0.098 h -0.383 v -0.14 c 0,-0.246 0.207,-0.246 0.305,-0.246 0,0.011 0.027,0.132 0.137,0.132 0.062,0 0.132,-0.05 0.132,-0.136 0,-0.192 -0.25,-0.192 -0.3,-0.192 -0.25,0 -0.493,0.149 -0.493,0.418 v 0.164 H 12.25 c -0.051,0 -0.129,0 -0.129,0.102 0,0.094 0.078,0.094 0.125,0.094 h 0.316 v 0.968 h -0.316 c -0.047,0 -0.129,0 -0.129,0.09 0,0.102 0.082,0.102 0.129,0.102 h 0.852 c 0.047,0 0.125,0 0.125,-0.098 0,-0.094 -0.078,-0.094 -0.125,-0.094 h -0.317 z"
       style="fill:#000000;fill-opacity:1;fill-rule:evenodd;stroke:none"
       transform="scale(1.3333333)" /><path
       id="path62"
       d="m 14.953,51.41 h 0.027 l 0.012,-0.004 h 0.031 l 0.008,-0.004 h 0.004 l 0.008,-0.004 0.012,-0.003 v -0.004 l 0.007,-0.004 0.012,-0.016 v -0.004 h 0.004 l 0.004,-0.004 v -0.004 h 0.004 v -0.015 l 0.004,-0.008 v -0.012 l 0.004,-0.004 v -0.023 c 0,-0.102 -0.11,-0.102 -0.149,-0.102 h -0.996 c -0.039,0 -0.148,0 -0.148,0.102 0,0.113 0.109,0.113 0.148,0.113 z"
       style="fill:#000000;fill-opacity:1;fill-rule:evenodd;stroke:none"
       transform="scale(1.3333333)" /><path
       id="path63"
       d="m 16.43,52.16 0.004,0.008 0.031,0.031 0.012,0.004 0.007,0.008 0.008,0.004 0.024,0.015 0.007,0.004 0.036,0.008 h 0.007 l 0.024,0.008 h 0.023 l 0.012,0.004 h 0.02 l 0.031,0.004 h 0.09 c 0.089,0 0.16,0 0.16,-0.098 0,-0.09 -0.078,-0.09 -0.129,-0.09 -0.129,0 -0.16,-0.015 -0.188,-0.027 v -0.676 c 0,-0.219 -0.168,-0.488 -0.621,-0.488 -0.133,0 -0.453,0 -0.453,0.234 0,0.09 0.067,0.137 0.141,0.137 0.047,0 0.133,-0.023 0.136,-0.137 0,-0.031 0,-0.035 0.067,-0.039 0.043,0 0.086,0 0.113,0 0.238,0 0.403,0.094 0.403,0.321 v 0.445 c 0,0.07 0,0.14 -0.122,0.195 -0.113,0.051 -0.257,0.051 -0.281,0.051 -0.195,0 -0.324,-0.102 -0.324,-0.223 0,-0.16 0.273,-0.273 0.727,-0.289 v -0.179 c -0.555,0.007 -0.942,0.164 -0.942,0.468 0,0.211 0.199,0.418 0.516,0.418 0.117,0 0.312,-0.023 0.461,-0.121 z"
       style="fill:#000000;fill-opacity:1;fill-rule:evenodd;stroke:none"
       transform="scale(1.3333333)" /><path
       id="path64"
       d="m 17.625,51.102 h 0.516 c 0.047,0 0.125,0 0.125,-0.098 0,-0.098 -0.078,-0.098 -0.125,-0.098 h -0.516 v -0.254 c 0,-0.058 0,-0.125 -0.109,-0.125 -0.11,0 -0.11,0.059 -0.11,0.125 v 0.254 h -0.273 c -0.051,0 -0.125,0 -0.125,0.098 0,0.098 0.074,0.098 0.125,0.098 h 0.273 v 0.765 c 0,0.297 0.215,0.414 0.446,0.414 0.23,0 0.484,-0.133 0.484,-0.414 0,-0.055 0,-0.125 -0.109,-0.125 -0.106,0 -0.106,0.07 -0.106,0.121 -0.004,0.196 -0.183,0.223 -0.254,0.223 -0.242,0 -0.242,-0.16 -0.242,-0.238 z"
       style="fill:#000000;fill-opacity:1;fill-rule:evenodd;stroke:none"
       transform="scale(1.3333333)" /><path
       id="path65"
       d="m 19.273,51.102 h 0.512 c 0.047,0 0.125,0 0.125,-0.098 0,-0.098 -0.074,-0.098 -0.125,-0.098 h -0.512 v -0.254 c 0,-0.058 0,-0.125 -0.109,-0.125 -0.109,0 -0.109,0.059 -0.109,0.125 v 0.254 h -0.274 c -0.051,0 -0.129,0 -0.129,0.098 0,0.098 0.078,0.098 0.125,0.098 h 0.278 v 0.765 c 0,0.297 0.215,0.414 0.441,0.414 0.234,0 0.488,-0.133 0.488,-0.414 0,-0.055 0,-0.125 -0.109,-0.125 -0.105,0 -0.109,0.07 -0.109,0.121 -0.004,0.196 -0.18,0.223 -0.254,0.223 -0.239,0 -0.239,-0.16 -0.239,-0.238 z"
       style="fill:#000000;fill-opacity:1;fill-rule:evenodd;stroke:none"
       transform="scale(1.3333333)" /><path
       id="path66"
       d="m 21.555,51.66 h 0.047 l 0.003,-0.004 h 0.016 l 0.008,-0.004 h 0.004 l 0.004,-0.004 0.019,-0.015 v -0.012 h 0.004 v -0.012 l 0.004,-0.004 v -0.011 l 0.004,-0.004 v -0.043 c 0,-0.356 -0.199,-0.664 -0.606,-0.664 -0.374,0 -0.675,0.312 -0.675,0.699 0,0.383 0.312,0.699 0.722,0.699 0.414,0 0.559,-0.281 0.559,-0.359 0,-0.09 -0.094,-0.09 -0.106,-0.09 -0.062,0 -0.082,0.012 -0.109,0.07 -0.07,0.16 -0.238,0.188 -0.324,0.188 -0.234,0 -0.473,-0.156 -0.52,-0.426 v -0.187 c 0.043,-0.231 0.231,-0.403 0.45,-0.403 0.164,0 0.355,0.078 0.386,0.403 h -0.836 v 0.187 z"
       style="fill:#000000;fill-opacity:1;fill-rule:evenodd;stroke:none"
       transform="scale(1.3333333)" /><path
       id="path67"
       d="M 22.391,51.059 V 51.004 L 22.387,50.996 V 50.961 L 22.383,50.957 V 50.949 H 22.379 L 22.375,50.941 22.367,50.93 H 22.363 L 22.355,50.926 V 50.922 H 22.344 L 22.34,50.918 H 22.336 L 22.332,50.914 H 22.305 L 22.297,50.91 h -0.25 c -0.051,0 -0.129,0 -0.129,0.098 0,0.094 0.082,0.094 0.125,0.094 h 0.141 v 0.968 h -0.137 c -0.051,0 -0.129,0 -0.129,0.098 0,0.094 0.082,0.094 0.125,0.094 h 0.5 c 0.043,0 0.125,0 0.125,-0.094 0,-0.098 -0.078,-0.098 -0.129,-0.098 h -0.137 v -0.554 c 0,-0.313 0.231,-0.434 0.391,-0.434 0.168,0 0.211,0.09 0.211,0.277 v 0.711 h -0.121 c -0.051,0 -0.129,0 -0.129,0.098 0,0.094 0.086,0.094 0.129,0.094 h 0.48 c 0.043,0 0.125,0 0.125,-0.094 0,-0.098 -0.078,-0.098 -0.129,-0.098 h -0.136 v -0.726 c 0,-0.317 -0.161,-0.453 -0.411,-0.453 -0.21,0 -0.351,0.109 -0.41,0.168 z"
       style="fill:#000000;fill-opacity:1;fill-rule:evenodd;stroke:none"
       transform="scale(1.3333333)" /><path
       id="path68"
       d="m 24.215,51.102 h 0.512 c 0.05,0 0.125,0 0.125,-0.098 0,-0.098 -0.075,-0.098 -0.125,-0.098 h -0.512 v -0.254 c 0,-0.058 0,-0.125 -0.11,-0.125 -0.109,0 -0.109,0.059 -0.109,0.125 v 0.254 h -0.273 c -0.051,0 -0.129,0 -0.129,0.098 0,0.098 0.078,0.098 0.125,0.098 h 0.277 v 0.765 c 0,0.297 0.215,0.414 0.442,0.414 0.234,0 0.488,-0.133 0.488,-0.414 0,-0.055 0,-0.125 -0.11,-0.125 -0.105,0 -0.105,0.07 -0.105,0.121 -0.004,0.196 -0.184,0.223 -0.258,0.223 -0.238,0 -0.238,-0.16 -0.238,-0.238 z"
       style="fill:#000000;fill-opacity:1;fill-rule:evenodd;stroke:none"
       transform="scale(1.3333333)" /><path
       id="path69"
       d="M 26.133,51.035 V 50.996 L 26.129,50.992 V 50.961 L 26.125,50.953 V 50.949 L 26.113,50.938 H 26.109 L 26.094,50.922 H 26.09 L 26.086,50.918 H 26.074 L 26.066,50.914 H 26.043 L 26.035,50.91 H 25.57 c -0.05,0 -0.129,0 -0.129,0.094 0,0.098 0.079,0.098 0.129,0.098 h 0.352 v 0.968 h -0.379 c -0.047,0 -0.125,0 -0.125,0.098 0,0.094 0.082,0.094 0.125,0.094 h 0.922 c 0.051,0 0.129,0 0.129,-0.094 0,-0.098 -0.078,-0.098 -0.129,-0.098 h -0.328 z"
       style="fill:#000000;fill-opacity:1;fill-rule:evenodd;stroke:none"
       transform="scale(1.3333333)" /><path
       id="path70"
       d="M 28.277,51.582 V 51.547 L 28.273,51.512 V 51.477 L 28.262,51.441 V 51.406 L 28.25,51.371 28.242,51.34 28.23,51.309 28.211,51.277 28.203,51.246 28.184,51.215 28.164,51.191 28.148,51.16 28.129,51.133 28.109,51.113 28.086,51.082 28.062,51.062 28.039,51.039 28.016,51.02 27.996,50.996 27.965,50.984 27.938,50.961 27.91,50.949 27.883,50.934 27.82,50.91 27.727,50.891 27.695,50.883 27.66,50.879 h -0.031 c -0.352,0 -0.641,0.316 -0.641,0.703 0,0.402 0.297,0.699 0.641,0.699 v -0.195 c -0.231,0 -0.426,-0.231 -0.426,-0.524 0,-0.285 0.203,-0.488 0.426,-0.488 0.226,0 0.426,0.203 0.426,0.488 0,0.293 -0.192,0.524 -0.426,0.524 v 0.195 c 0.348,0 0.644,-0.301 0.644,-0.699 z"
       style="fill:#000000;fill-opacity:1;fill-rule:evenodd;stroke:none"
       transform="scale(1.3333333)" /><path
       id="path71"
       d="M 28.98,51.059 V 51.016 L 28.977,51.008 V 50.969 L 28.973,50.961 V 50.957 L 28.969,50.953 V 50.949 L 28.965,50.941 28.957,50.93 H 28.953 L 28.945,50.926 V 50.922 H 28.934 L 28.93,50.918 H 28.918 L 28.914,50.914 H 28.895 L 28.883,50.91 h -0.25 c -0.047,0 -0.125,0 -0.125,0.098 0,0.094 0.082,0.094 0.125,0.094 h 0.137 v 0.968 h -0.137 c -0.047,0 -0.125,0 -0.125,0.098 0,0.094 0.082,0.094 0.125,0.094 h 0.5 c 0.043,0 0.125,0 0.125,-0.094 0,-0.098 -0.082,-0.098 -0.129,-0.098 h -0.137 v -0.554 c 0,-0.313 0.227,-0.434 0.391,-0.434 0.168,0 0.207,0.09 0.207,0.277 v 0.711 h -0.121 c -0.047,0 -0.129,0 -0.129,0.098 0,0.094 0.086,0.094 0.129,0.094 h 0.484 c 0.043,0 0.125,0 0.125,-0.094 0,-0.098 -0.078,-0.098 -0.129,-0.098 h -0.144 v -0.726 c 0,-0.317 -0.157,-0.453 -0.403,-0.453 -0.211,0 -0.351,0.109 -0.41,0.168 z"
       style="fill:#000000;fill-opacity:1;fill-rule:evenodd;stroke:none"
       transform="scale(1.3333333)" /><path
       id="path72"
       d="m 14.688,54.363 h 0.425 c 0,0.125 0,0.172 0.11,0.172 0.109,0 0.109,-0.062 0.109,-0.129 v -0.289 c 0,-0.058 0,-0.125 -0.109,-0.125 -0.11,0 -0.11,0.047 -0.11,0.176 h -0.425 v -0.676 h 0.785 v 0.168 c 0,0.067 0,0.129 0.105,0.129 0.11,0 0.11,-0.062 0.11,-0.129 v -0.222 c 0,-0.102 -0.02,-0.129 -0.126,-0.129 h -1.195 c -0.051,0 -0.129,0 -0.129,0.097 0,0.086 0.082,0.086 0.129,0.086 h 0.102 v 1.539 h -0.102 c -0.051,0 -0.129,0 -0.129,0.094 0,0.098 0.082,0.098 0.129,0.098 h 0.485 c 0.046,0 0.125,0 0.125,-0.098 0,-0.094 -0.075,-0.094 -0.125,-0.094 h -0.164 z"
       style="fill:#000000;fill-opacity:1;fill-rule:evenodd;stroke:none"
       transform="scale(1.3333333)" /><path
       id="path73"
       d="m 16.922,55.121 v 0.024 l 0.004,0.003 v 0.02 l 0.004,0.008 v 0.008 h 0.004 v 0.007 h 0.004 l 0.019,0.016 0.004,0.004 h 0.004 l 0.008,0.004 h 0.007 l 0.004,0.004 h 0.286 c 0.05,0 0.128,0 0.128,-0.098 0,-0.09 -0.082,-0.09 -0.125,-0.09 h -0.144 v -1.035 c 0,-0.094 -0.02,-0.129 -0.125,-0.129 h -0.227 c -0.05,0 -0.129,0 -0.129,0.098 0,0.097 0.079,0.097 0.125,0.097 h 0.141 v 0.668 c 0,0.286 -0.254,0.317 -0.355,0.317 -0.247,0 -0.247,-0.098 -0.247,-0.203 v -0.848 c 0,-0.094 -0.019,-0.129 -0.124,-0.129 h -0.231 c -0.051,0 -0.129,0 -0.129,0.098 0,0.097 0.082,0.097 0.125,0.097 h 0.141 v 0.805 c 0,0.297 0.218,0.375 0.445,0.375 0.129,0 0.258,-0.035 0.375,-0.121 z"
       style="fill:#000000;fill-opacity:1;fill-rule:evenodd;stroke:none"
       transform="scale(1.3333333)" /><path
       id="path74"
       d="M 18.379,54.422 18.355,54.414 18.301,54.406 H 18.277 L 18.262,54.402 H 18.25 L 18.238,54.398 H 18.223 L 18.211,54.395 18.195,54.391 H 18.18 l -0.012,-0.004 c -0.094,-0.012 -0.305,-0.051 -0.305,-0.172 0,-0.082 0.102,-0.184 0.399,-0.184 0.261,0 0.304,0.098 0.312,0.18 0.004,0.055 0.012,0.105 0.106,0.105 0.113,0 0.113,-0.07 0.113,-0.128 v -0.215 c 0,-0.051 0,-0.129 -0.098,-0.129 -0.074,0 -0.086,0.043 -0.09,0.062 -0.14,-0.062 -0.277,-0.062 -0.339,-0.062 -0.524,0 -0.594,0.258 -0.594,0.371 0,0.289 0.328,0.34 0.617,0.383 0.152,0.023 0.406,0.062 0.406,0.23 0,0.121 -0.117,0.223 -0.402,0.223 -0.148,0 -0.324,-0.031 -0.402,-0.278 -0.016,-0.058 -0.028,-0.093 -0.11,-0.093 -0.109,0 -0.109,0.062 -0.109,0.129 v 0.304 c 0,0.047 0,0.129 0.094,0.129 0.027,0 0.078,-0.004 0.117,-0.121 0.152,0.117 0.32,0.121 0.406,0.121 0.496,0 0.598,-0.258 0.598,-0.414 0,-0.324 -0.407,-0.387 -0.508,-0.402 z"
       style="fill:#000000;fill-opacity:1;fill-rule:evenodd;stroke:none"
       transform="scale(1.3333333)" /><path
       id="path75"
       d="M 20.062,53.996 V 53.969 L 20.059,53.957 V 53.922 L 20.047,53.91 V 53.906 L 20.043,53.898 H 20.039 L 20.023,53.883 H 20.016 L 20.012,53.879 H 20 l -0.008,-0.004 h -0.023 l -0.008,-0.004 h -0.465 c -0.047,0 -0.129,0 -0.129,0.094 0,0.097 0.082,0.097 0.129,0.097 h 0.352 v 0.969 h -0.379 c -0.051,0 -0.129,0 -0.129,0.098 0,0.094 0.082,0.094 0.129,0.094 h 0.926 c 0.046,0 0.128,0 0.128,-0.094 0,-0.098 -0.082,-0.098 -0.128,-0.098 h -0.329 z"
       style="fill:#000000;fill-opacity:1;fill-rule:evenodd;stroke:none"
       transform="scale(1.3333333)" /><path
       id="path76"
       d="M 20.062,53.457 V 53.445 L 20.059,53.438 V 53.406 L 20.055,53.398 20.051,53.395 20.039,53.367 20.035,53.359 20.031,53.355 20.023,53.352 20.02,53.344 20.012,53.34 20.004,53.332 20,53.324 19.984,53.32 19.98,53.316 19.973,53.312 h -0.008 l -0.008,-0.003 h -0.008 l -0.008,-0.004 h -0.023 c -0.09,0 -0.16,0.07 -0.16,0.156 0,0.086 0.07,0.156 0.16,0.156 0.086,0 0.156,-0.07 0.156,-0.156 z"
       style="fill:#000000;fill-opacity:1;fill-rule:evenodd;stroke:none"
       transform="scale(1.3333333)" /><path
       id="path77"
       d="M 22.207,54.543 22.203,54.512 V 54.473 L 22.199,54.438 22.176,54.332 22.164,54.305 22.156,54.27 22.141,54.238 22.121,54.207 22.109,54.176 22.09,54.152 22.078,54.121 22.055,54.098 22.035,54.074 22.016,54.043 21.992,54.023 21.969,54 21.945,53.98 21.922,53.957 21.895,53.945 21.867,53.922 21.84,53.91 21.809,53.898 21.777,53.883 21.75,53.871 21.656,53.852 21.621,53.848 21.59,53.844 h -0.031 c -0.352,0 -0.645,0.312 -0.645,0.699 0,0.402 0.301,0.699 0.645,0.699 v -0.195 c -0.235,0 -0.426,-0.231 -0.426,-0.524 0,-0.285 0.203,-0.492 0.426,-0.492 0.226,0 0.425,0.207 0.425,0.492 0,0.293 -0.195,0.524 -0.425,0.524 v 0.195 c 0.343,0 0.644,-0.301 0.644,-0.699 z"
       style="fill:#000000;fill-opacity:1;fill-rule:evenodd;stroke:none"
       transform="scale(1.3333333)" /><path
       id="path78"
       d="M 22.906,54.02 V 53.949 L 22.902,53.941 V 53.918 L 22.891,53.906 V 53.902 L 22.883,53.891 H 22.875 L 22.867,53.883 H 22.859 L 22.855,53.879 H 22.844 L 22.84,53.875 h -0.028 l -0.003,-0.004 h -0.25 c -0.051,0 -0.129,0 -0.129,0.098 0,0.093 0.082,0.093 0.125,0.093 h 0.14 v 0.969 h -0.136 c -0.051,0 -0.129,0 -0.129,0.098 0,0.094 0.082,0.094 0.125,0.094 h 0.5 c 0.043,0 0.125,0 0.125,-0.094 0,-0.098 -0.078,-0.098 -0.129,-0.098 h -0.137 v -0.554 c 0,-0.313 0.234,-0.434 0.391,-0.434 0.168,0 0.211,0.09 0.211,0.277 v 0.711 h -0.125 c -0.051,0 -0.129,0 -0.129,0.098 0,0.094 0.086,0.094 0.129,0.094 h 0.484 c 0.047,0 0.125,0 0.125,-0.094 0,-0.098 -0.078,-0.098 -0.125,-0.098 H 23.73 v -0.726 c 0,-0.317 -0.156,-0.453 -0.402,-0.453 -0.211,0 -0.355,0.109 -0.414,0.168 z"
       style="fill:#000000;fill-opacity:1;fill-rule:evenodd;stroke:none"
       transform="scale(1.3333333)" /><g
       id="g5"
       transform="translate(5.1346665,-0.00333333)"><path
         id="path79"
         d="m 18.852,40.469 c 0.101,0.031 0.179,0.054 0.261,0.07 v 0.004 c -0.129,0.027 -0.851,0.269 -0.867,0.277 -0.066,0.032 -0.066,0.098 -0.066,0.137 v 0.156 c 0,0.039 0,0.11 0.082,0.11 0.086,0 0.086,-0.059 0.086,-0.149 h 1.355 c 0,0.09 0,0.149 0.086,0.149 0.082,0 0.082,-0.071 0.082,-0.11 v -0.226 c 0,-0.039 0,-0.114 -0.082,-0.114 -0.086,0 -0.086,0.059 -0.086,0.149 h -1.32 v -0.004 c 0.129,-0.027 0.66,-0.211 0.695,-0.219 0.067,-0.019 0.168,-0.054 0.188,-0.074 0.019,-0.016 0.043,-0.051 0.043,-0.082 0,-0.031 -0.024,-0.07 -0.063,-0.094 -0.016,-0.008 -0.715,-0.25 -0.863,-0.277 v -0.004 h 1.32 c 0,0.086 0,0.144 0.086,0.144 0.082,0 0.082,-0.066 0.082,-0.113 V 39.98 c 0,-0.042 0,-0.113 -0.082,-0.113 -0.086,0 -0.086,0.055 -0.086,0.149 h -1.355 c 0,-0.094 0,-0.149 -0.086,-0.149 -0.082,0 -0.082,0.071 -0.082,0.113 v 0.157 c 0,0.109 0.039,0.117 0.113,0.14 z"
         style="fill:#000000;fill-opacity:1;fill-rule:nonzero;stroke:none"
         transform="scale(1.3333333)" /><path
         id="path80"
         d="m 19.785,38.828 c 0.086,-0.004 0.086,-0.058 0.086,-0.109 V 38.52 c 0,-0.047 0,-0.122 -0.086,-0.122 -0.082,0 -0.082,0.079 -0.082,0.118 v 0.125 h -0.91 c -0.086,0 -0.113,0.007 -0.113,0.105 v 0.203 c 0,0.043 0,0.113 0.086,0.113 0.082,0 0.082,-0.074 0.082,-0.113 v -0.121 h 0.59 c 0.25,0 0.281,0.223 0.281,0.317 0,0.21 -0.09,0.21 -0.18,0.21 h -0.746 c -0.086,0 -0.113,0.02 -0.113,0.118 v 0.195 c 0,0.043 0,0.113 0.086,0.113 0.082,0 0.082,-0.07 0.082,-0.109 v -0.125 h 0.707 c 0.269,0 0.336,-0.192 0.336,-0.391 0,-0.117 -0.032,-0.226 -0.106,-0.328 z"
         style="fill:#000000;fill-opacity:1;fill-rule:nonzero;stroke:none"
         transform="scale(1.3333333)" /><path
         id="path81"
         d="m 18.293,37.543 c -0.082,0 -0.113,0.019 -0.113,0.109 v 0.442 c 0,0.043 0,0.109 0.086,0.109 0.082,0 0.082,-0.074 0.082,-0.109 v -0.36 h 1.355 v 0.36 c 0,0.043 0,0.109 0.086,0.109 0.082,0 0.082,-0.074 0.082,-0.109 v -0.906 c 0,-0.043 0,-0.118 -0.082,-0.118 -0.086,0 -0.086,0.071 -0.086,0.118 v 0.355 z"
         style="fill:#000000;fill-opacity:1;fill-rule:nonzero;stroke:none"
         transform="scale(1.3333333)" /><path
         id="path82"
         d="m 18.848,36.297 v -0.449 c 0,-0.043 0,-0.118 -0.082,-0.118 -0.086,0 -0.086,0.075 -0.086,0.118 v 0.449 h -0.227 c -0.051,0 -0.113,0 -0.113,0.098 0,0.093 0.058,0.093 0.113,0.093 h 0.227 v 0.242 c 0,0.043 0,0.118 0.086,0.118 0.082,0 0.082,-0.075 0.082,-0.114 v -0.246 h 0.675 c 0.266,0 0.368,-0.183 0.368,-0.386 0,-0.207 -0.121,-0.426 -0.368,-0.426 -0.05,0 -0.105,0 -0.105,0.094 0,0.089 0.055,0.093 0.102,0.093 0.175,0 0.199,0.16 0.199,0.219 0,0.219 -0.141,0.219 -0.211,0.219 z"
         style="fill:#000000;fill-opacity:1;fill-rule:nonzero;stroke:none"
         transform="scale(1.3333333)" /><path
         id="path83"
         d="m 18.793,34.605 c -0.086,0 -0.113,0.016 -0.113,0.114 v 0.39 c 0,0.043 0,0.118 0.082,0.118 0.086,0 0.086,-0.075 0.086,-0.118 v -0.312 h 0.855 v 0.332 c 0,0.043 0,0.113 0.086,0.113 0.082,0 0.082,-0.07 0.082,-0.113 v -0.817 c 0,-0.039 0,-0.109 -0.082,-0.109 -0.086,0 -0.086,0.07 -0.086,0.109 v 0.293 z m -0.477,0 c -0.074,0 -0.136,0.059 -0.136,0.137 0,0.078 0.062,0.145 0.136,0.145 0.079,0 0.137,-0.067 0.137,-0.145 0,-0.078 -0.058,-0.137 -0.137,-0.137 z"
         style="fill:#000000;fill-opacity:1;fill-rule:nonzero;stroke:none"
         transform="scale(1.3333333)" /><path
         id="path84"
         d="m 19.121,32.844 c 0,-0.032 0,-0.133 -0.094,-0.133 -0.101,0 -0.101,0.101 -0.101,0.133 v 0.883 c 0,0.027 0,0.128 0.101,0.128 0.094,0 0.094,-0.101 0.094,-0.128 z"
         style="fill:#000000;fill-opacity:1;fill-rule:nonzero;stroke:none"
         transform="scale(1.3333333)" /><path
         id="path85"
         d="m 19.062,31.375 c -0.277,0 -0.402,0.145 -0.402,0.359 0,0.184 0.098,0.309 0.149,0.364 h -0.516 c -0.082,0 -0.113,0.015 -0.113,0.109 v 0.199 c 0,0.043 0,0.117 0.086,0.117 0.082,0 0.082,-0.074 0.082,-0.113 v -0.125 h 1.355 v 0.121 c 0,0.043 0,0.117 0.086,0.117 0.082,0 0.082,-0.074 0.082,-0.113 v -0.437 c 0,-0.039 0,-0.114 -0.082,-0.114 -0.086,0 -0.086,0.075 -0.086,0.118 v 0.121 h -0.492 c -0.277,0 -0.379,-0.203 -0.379,-0.348 0,-0.145 0.078,-0.184 0.242,-0.184 h 0.629 v 0.11 c 0,0.047 0,0.113 0.086,0.113 0.082,0 0.082,-0.078 0.082,-0.113 V 31.25 c 0,-0.039 0,-0.109 -0.082,-0.109 -0.086,0 -0.086,0.066 -0.086,0.113 v 0.121 z"
         style="fill:#000000;fill-opacity:1;fill-rule:nonzero;stroke:none"
         transform="scale(1.3333333)" /><path
         id="path86"
         d="m 19.344,29.93 c 0,-0.059 0,-0.11 -0.102,-0.11 -0.316,0 -0.59,0.176 -0.59,0.535 0,0.333 0.278,0.594 0.621,0.594 0.336,0 0.618,-0.281 0.618,-0.637 0,-0.363 -0.254,-0.492 -0.321,-0.492 -0.074,0 -0.074,0.078 -0.074,0.094 0,0.055 0.008,0.074 0.059,0.09 0.14,0.062 0.164,0.219 0.164,0.297 0,0.203 -0.137,0.406 -0.375,0.453 z m -0.164,0.82 c -0.207,-0.039 -0.356,-0.199 -0.356,-0.395 0,-0.136 0.067,-0.316 0.356,-0.335 z"
         style="fill:#000000;fill-opacity:1;fill-rule:nonzero;stroke:none"
         transform="scale(1.3333333)" /><path
         id="path87"
         d="m 19.785,28.641 c 0.082,-0.067 0.086,-0.196 0.086,-0.297 0,-0.078 0,-0.141 -0.086,-0.141 -0.082,0 -0.082,0.07 -0.082,0.109 0,0.118 -0.012,0.141 -0.023,0.168 h -0.598 c -0.195,0 -0.43,0.145 -0.43,0.547 0,0.121 0,0.403 0.203,0.403 0.086,0 0.129,-0.063 0.129,-0.121 0,-0.043 -0.027,-0.121 -0.129,-0.121 -0.019,0 -0.023,-0.008 -0.027,-0.067 -0.004,-0.039 -0.004,-0.074 -0.004,-0.098 0,-0.211 0.086,-0.351 0.281,-0.351 0.008,0.484 0.145,0.828 0.411,0.828 0.191,0 0.375,-0.176 0.375,-0.457 0,-0.105 -0.02,-0.273 -0.106,-0.402 z m -0.515,0.035 h 0.234 c 0.058,0 0.121,0 0.168,0.097 0.047,0.102 0.047,0.227 0.047,0.25 0,0.172 -0.094,0.289 -0.203,0.289 -0.133,0 -0.239,-0.242 -0.246,-0.636 z"
         style="fill:#000000;fill-opacity:1;fill-rule:nonzero;stroke:none"
         transform="scale(1.3333333)" /><path
         id="path88"
         d="m 19.734,27.211 c 0.098,0 0.137,0 0.137,-0.109 v -0.204 c 0,-0.046 0,-0.117 -0.086,-0.117 -0.082,0 -0.082,0.074 -0.082,0.114 v 0.128 h -1.41 c -0.082,0 -0.113,0.008 -0.113,0.102 v 0.207 c 0,0.043 0,0.113 0.086,0.113 0.082,0 0.082,-0.074 0.082,-0.113 v -0.121 h 0.441 c -0.082,0.094 -0.129,0.203 -0.129,0.32 0,0.301 0.266,0.571 0.617,0.571 0.344,0 0.614,-0.247 0.614,-0.543 0,-0.161 -0.075,-0.278 -0.157,-0.348 z m -0.593,0 h 0.195 c 0.156,0 0.383,0.121 0.383,0.332 0,0.199 -0.196,0.363 -0.442,0.363 -0.265,0 -0.445,-0.195 -0.445,-0.383 0,-0.175 0.156,-0.312 0.309,-0.312 z"
         style="fill:#000000;fill-opacity:1;fill-rule:nonzero;stroke:none"
         transform="scale(1.3333333)" /><path
         id="path89"
         d="m 19.785,24.277 c 0.082,-0.054 0.086,-0.191 0.086,-0.293 0,-0.078 0,-0.136 -0.086,-0.136 -0.082,0 -0.082,0.066 -0.082,0.105 0,0.117 -0.012,0.149 -0.023,0.164 h -0.598 c -0.195,0 -0.43,0.156 -0.43,0.551 0,0.117 0,0.398 0.203,0.398 0.086,0 0.129,-0.05 0.129,-0.121 0,-0.043 -0.027,-0.121 -0.129,-0.121 -0.019,0 -0.023,-0.004 -0.027,-0.054 -0.004,-0.04 -0.004,-0.079 -0.004,-0.106 0,-0.207 0.086,-0.352 0.281,-0.352 0.008,0.493 0.145,0.833 0.411,0.833 0.191,0 0.375,-0.172 0.375,-0.457 0,-0.106 -0.02,-0.278 -0.106,-0.411 z m -0.515,0.035 h 0.234 c 0.058,0 0.121,0 0.168,0.106 0.047,0.102 0.047,0.23 0.047,0.246 0,0.18 -0.094,0.285 -0.203,0.285 -0.133,0 -0.239,-0.238 -0.246,-0.637 z"
         style="fill:#000000;fill-opacity:1;fill-rule:nonzero;stroke:none"
         transform="scale(1.3333333)" /><path
         id="path90"
         d="m 18.848,23.23 v -0.457 c 0,-0.043 0,-0.113 -0.082,-0.113 -0.086,0 -0.086,0.07 -0.086,0.113 v 0.457 h -0.227 c -0.051,0 -0.113,0 -0.113,0.09 0,0.098 0.058,0.098 0.113,0.098 h 0.227 v 0.242 c 0,0.043 0,0.113 0.086,0.113 0.082,0 0.082,-0.07 0.082,-0.109 v -0.246 h 0.675 c 0.266,0 0.368,-0.188 0.368,-0.391 0,-0.207 -0.121,-0.422 -0.368,-0.422 -0.05,0 -0.105,0 -0.105,0.09 0,0.094 0.055,0.098 0.102,0.098 0.175,0 0.199,0.16 0.199,0.223 0,0.214 -0.141,0.214 -0.211,0.214 z"
         style="fill:#000000;fill-opacity:1;fill-rule:nonzero;stroke:none"
         transform="scale(1.3333333)" /><path
         id="path91"
         d="M 18.848,21.773 V 21.32 c 0,-0.043 0,-0.109 -0.082,-0.109 -0.086,0 -0.086,0.066 -0.086,0.109 v 0.453 h -0.227 c -0.051,0 -0.113,0 -0.113,0.094 0,0.102 0.058,0.102 0.113,0.102 h 0.227 v 0.238 c 0,0.043 0,0.113 0.086,0.113 0.082,0 0.082,-0.07 0.082,-0.109 v -0.242 h 0.675 c 0.266,0 0.368,-0.192 0.368,-0.395 0,-0.203 -0.121,-0.426 -0.368,-0.426 -0.05,0 -0.105,0 -0.105,0.094 0,0.094 0.055,0.102 0.102,0.102 0.175,0 0.199,0.156 0.199,0.218 0,0.211 -0.141,0.211 -0.211,0.211 z"
         style="fill:#000000;fill-opacity:1;fill-rule:nonzero;stroke:none"
         transform="scale(1.3333333)" /><path
         id="path92"
         d="m 19.344,19.766 c 0,-0.059 0,-0.114 -0.102,-0.114 -0.316,0 -0.59,0.18 -0.59,0.539 0,0.332 0.278,0.594 0.621,0.594 0.336,0 0.618,-0.281 0.618,-0.637 0,-0.367 -0.254,-0.496 -0.321,-0.496 -0.074,0 -0.074,0.078 -0.074,0.098 0,0.055 0.008,0.07 0.059,0.094 0.14,0.054 0.164,0.211 0.164,0.285 0,0.215 -0.137,0.414 -0.375,0.465 z m -0.164,0.82 c -0.207,-0.039 -0.356,-0.199 -0.356,-0.395 0,-0.144 0.067,-0.316 0.356,-0.339 z"
         style="fill:#000000;fill-opacity:1;fill-rule:nonzero;stroke:none"
         transform="scale(1.3333333)" /><path
         id="path93"
         d="m 18.809,19.023 c -0.086,0 -0.129,0 -0.129,0.118 v 0.195 c 0,0.051 0,0.113 0.086,0.113 0.082,0 0.082,-0.062 0.082,-0.101 v -0.129 h 0.855 v 0.117 c 0,0.051 0,0.113 0.086,0.113 0.082,0 0.082,-0.062 0.082,-0.101 v -0.45 c 0,-0.039 0,-0.109 -0.082,-0.109 -0.086,0 -0.086,0.07 -0.086,0.113 v 0.121 h -0.492 c -0.277,0 -0.379,-0.203 -0.379,-0.339 0,-0.149 0.078,-0.188 0.242,-0.188 h 0.629 v 0.109 c 0,0.043 0,0.118 0.086,0.118 0.082,0 0.082,-0.078 0.082,-0.118 v -0.421 c 0,-0.039 0,-0.118 -0.082,-0.118 -0.086,0 -0.086,0.075 -0.086,0.122 v 0.121 h -0.641 c -0.277,0 -0.402,0.136 -0.402,0.355 0,0.188 0.098,0.313 0.149,0.359 z"
         style="fill:#000000;fill-opacity:1;fill-rule:nonzero;stroke:none"
         transform="scale(1.3333333)" /><path
         id="path94"
         d="m 18.848,17.418 v -0.449 c 0,-0.047 0,-0.114 -0.082,-0.114 -0.086,0 -0.086,0.067 -0.086,0.114 v 0.449 h -0.227 c -0.051,0 -0.113,0 -0.113,0.098 0,0.093 0.058,0.093 0.113,0.093 h 0.227 v 0.246 c 0,0.043 0,0.114 0.086,0.114 0.082,0 0.082,-0.071 0.082,-0.114 v -0.246 h 0.675 c 0.266,0 0.368,-0.187 0.368,-0.386 0,-0.207 -0.121,-0.43 -0.368,-0.43 -0.05,0 -0.105,0 -0.105,0.098 0,0.089 0.055,0.093 0.102,0.093 0.175,0 0.199,0.164 0.199,0.219 0,0.215 -0.141,0.215 -0.211,0.215 z"
         style="fill:#000000;fill-opacity:1;fill-rule:nonzero;stroke:none"
         transform="scale(1.3333333)" /><path
         id="path95"
         d="m 18.793,15.73 c -0.086,0 -0.113,0.012 -0.113,0.106 v 0.394 c 0,0.043 0,0.118 0.082,0.118 0.086,0 0.086,-0.075 0.086,-0.118 v -0.312 h 0.855 v 0.332 c 0,0.043 0,0.113 0.086,0.113 0.082,0 0.082,-0.07 0.082,-0.113 v -0.812 c 0,-0.043 0,-0.114 -0.082,-0.114 -0.086,0 -0.086,0.071 -0.086,0.114 v 0.292 z m -0.477,0 c -0.074,0 -0.136,0.055 -0.136,0.133 0,0.078 0.062,0.141 0.136,0.141 0.079,0 0.137,-0.063 0.137,-0.141 0,-0.078 -0.058,-0.133 -0.137,-0.133 z"
         style="fill:#000000;fill-opacity:1;fill-rule:nonzero;stroke:none"
         transform="scale(1.3333333)" /><path
         id="path96"
         d="m 19.273,13.836 c -0.347,0 -0.621,0.258 -0.621,0.566 0,0.309 0.274,0.575 0.621,0.575 0.352,0 0.618,-0.27 0.618,-0.575 0,-0.297 -0.266,-0.566 -0.618,-0.566 z m 0.446,0.566 c 0,0.207 -0.207,0.379 -0.461,0.379 -0.254,0 -0.434,-0.179 -0.434,-0.379 0,-0.199 0.18,-0.375 0.434,-0.375 0.254,0 0.461,0.172 0.461,0.375 z"
         style="fill:#000000;fill-opacity:1;fill-rule:nonzero;stroke:none"
         transform="scale(1.3333333)" /><path
         id="path97"
         d="m 18.809,13.219 c -0.086,0 -0.129,0 -0.129,0.109 v 0.199 c 0,0.043 0,0.118 0.086,0.118 0.082,0 0.082,-0.075 0.082,-0.114 v -0.125 h 0.855 v 0.121 c 0,0.043 0,0.118 0.086,0.118 0.082,0 0.082,-0.075 0.082,-0.114 v -0.437 c 0,-0.039 0,-0.114 -0.082,-0.114 -0.086,0 -0.086,0.075 -0.086,0.118 v 0.121 h -0.492 c -0.277,0 -0.379,-0.203 -0.379,-0.352 0,-0.137 0.078,-0.179 0.242,-0.179 h 0.629 v 0.101 c 0,0.055 0,0.117 0.086,0.117 0.082,0 0.082,-0.078 0.082,-0.117 v -0.418 c 0,-0.039 0,-0.109 -0.082,-0.109 -0.086,0 -0.086,0.066 -0.086,0.113 v 0.121 h -0.641 c -0.277,0 -0.402,0.145 -0.402,0.359 0,0.184 0.098,0.309 0.149,0.364 z"
         style="fill:#000000;fill-opacity:1;fill-rule:nonzero;stroke:none"
         transform="scale(1.3333333)" /></g></g></svg>
